Crispy Wide Medium-MaxGrade-minXOPQ.ufo
<glyph name="exclam" format="2">
  <advance width="322"/>
  <unicode hex="0021"/>
  <outline>
    <contour>
      <point x="159" y="453" type="line" identifier="1m237t4hyw"/>
      <point x="162" y="453" type="line" identifier="S4rO5KuHiL"/>
      <point x="162" y="1600" type="line" identifier="zfocDyDTCM"/>
      <point x="159" y="1600" type="line" identifier="v7N4yg5XNk"/>
    </contour>
    <component base="period" xOffset="60"/>
  </outline>
</glyph>
<glyph name="asterisk" format="2">
  <advance width="892"/>
  <unicode hex="002A"/>
  <outline>
    <contour>
      <point x="101" y="616" type="line"/>
      <point x="447" y="888" type="line"/>
      <point x="798" y="615" type="line"/>
      <point x="940" y="821" type="line"/>
      <point x="451" y="1176" type="line"/>
      <point x="985" y="1340" type="line"/>
      <point x="890" y="1615" type="line"/>
      <point x="448" y="1451" type="line"/>
      <point x="448" y="1851" type="line"/>
      <point x="446" y="1851" type="line"/>
      <point x="446" y="1451" type="line"/>
      <point x="1" y="1615" type="line"/>
      <point x="-95" y="1341" type="line"/>
      <point x="442" y="1176" type="line"/>
      <point x="-37" y="825" type="line"/>
    </contour>
  </outline>
</glyph>
<glyph name="period" format="2">
  <advance width="547"/>
  <unicode hex="002E"/>
  <outline>
    <contour>
      <point x="103" y="0" type="line" identifier="1m237t4hyw"/>
      <point x="103" y="401" type="line"/>
      <point x="98" y="401" type="line" identifier="zfocDyDTCM"/>
      <point x="98" y="0" type="line" identifier="S4rO5KuHiL"/>
    </contour>
  </outline>
</glyph>
<glyph name="four" format="2">
  <advance width="4071"/>
  <unicode hex="0034"/>
  <outline>
    <contour>
      <point x="3354" y="0" type="line"/>
      <point x="3356" y="0" type="line"/>
      <point x="3356" y="568" type="line"/>
      <point x="3711" y="568" type="line"/>
      <point x="3711" y="956" type="line"/>
      <point x="3356" y="956" type="line"/>
      <point x="3356" y="1600" type="line"/>
      <point x="3354" y="1600" type="line"/>
      <point x="3354" y="956" type="line"/>
      <point x="399" y="956" type="line"/>
      <point x="399" y="1053" type="line"/>
      <point x="598" y="1600" type="line"/>
      <point x="596" y="1600" type="line"/>
      <point x="397" y="1052" type="line"/>
      <point x="397" y="568" type="line"/>
      <point x="3354" y="568" type="line"/>
    </contour>
  </outline>
</glyph>
<glyph name="A" format="2">
  <advance width="4112"/>
  <unicode hex="0041"/>
  <outline>
    <contour>
      <point x="3477" y="1600" type="line" smooth="yes"/>
      <point x="873" y="1600" type="line" smooth="yes"/>
      <point x="249" y="0" type="line" smooth="yes"/>
      <point x="251" y="0" type="line" smooth="yes"/>
      <point x="741" y="1212" type="line"/>
      <point x="3475" y="1212" type="line" smooth="yes"/>
      <point x="3475" y="0" type="line"/>
      <point x="3477" y="0" type="line" smooth="yes"/>
    </contour>
    <contour>
      <point x="451" y="485" type="line"/>
      <point x="3476" y="485" type="line"/>
      <point x="3476" y="873" type="line"/>
      <point x="586" y="873" type="line"/>
    </contour>
  </outline>
</glyph>
<glyph name="B" format="2">
  <advance width="4157"/>
  <unicode hex="0042"/>
  <outline>
    <contour>
      <point x="635" y="0" type="line"/>
      <point x="3513" y="0" type="line"/>
      <point x="3962" y="475" type="line"/>
      <point x="3962" y="959" type="line"/>
      <point x="3314" y="959" type="line"/>
      <point x="3438" y="1066" type="line"/>
      <point x="3438" y="1600" type="line"/>
      <point x="635" y="1600" type="line"/>
    </contour>
    <contour>
      <point x="637" y="360" type="line"/>
      <point x="637" y="620" type="line"/>
      <point x="3960" y="620" type="line"/>
      <point x="3960" y="576" type="line"/>
      <point x="3731" y="360" type="line"/>
    </contour>
    <contour>
      <point x="637" y="980" type="line"/>
      <point x="637" y="1240" type="line"/>
      <point x="3436" y="1240" type="line"/>
      <point x="3436" y="1087" type="line"/>
      <point x="3299" y="980" type="line"/>
    </contour>
  </outline>
</glyph>
<glyph name="C" format="2">
  <advance width="4163"/>
  <unicode hex="0043"/>
  <outline>
    <contour>
      <point x="444" y="0" type="line" identifier="7lPhzTnk2Z"/>
      <point x="3583" y="0" type="line" identifier="qJVLZGnkwh"/>
      <point x="3583" y="649" type="line" identifier="nDnDHzAMXL"/>
      <point x="3581" y="649" type="line" identifier="QX1V08aTu0"/>
      <point x="3581" y="388" type="line" identifier="Y750RHTvDj"/>
      <point x="446" y="388" type="line" identifier="L2LsGnXiZ2"/>
      <point x="446" y="932" type="line" identifier="sUWsr03vF4"/>
      <point x="723" y="1212" type="line" identifier="dbOUe6OhxL"/>
      <point x="3566" y="1212" type="line" identifier="5BjRbcud80"/>
      <point x="3566" y="912" type="line" identifier="fNVDqwQo2o"/>
      <point x="3568" y="912" type="line" identifier="wLqQQx7QVN"/>
      <point x="3568" y="1600" type="line" identifier="9eJelv8BOw"/>
      <point x="894" y="1600" type="line" identifier="lfZev3ICaC"/>
      <point x="444" y="1090" type="line" identifier="V1EWIdPahq"/>
    </contour>
  </outline>
</glyph>
<glyph name="E" format="2">
  <advance width="4127"/>
  <unicode hex="0045"/>
  <outline>
    <contour>
      <point x="634" y="0" type="line" identifier="fZynkQ4XHB"/>
      <point x="3548" y="0" type="line" identifier="FAQNpgUPxV"/>
      <point x="3548" y="705" type="line" identifier="gHI0YjrPxR"/>
      <point x="3546" y="705" type="line" identifier="gxCIuXb4el"/>
      <point x="3546" y="360" type="line" identifier="5cgTYOhATF"/>
      <point x="636" y="360" type="line" identifier="bWs42DaCgU"/>
      <point x="636" y="620" type="line" identifier="VtD2aADJmn"/>
      <point x="2485" y="620" type="line" identifier="PpbsFdHAnS"/>
      <point x="2485" y="980" type="line" identifier="8WuC5p8Ax5"/>
      <point x="636" y="980" type="line" identifier="m39IWn9ntA"/>
      <point x="636" y="1240" type="line" identifier="gQ21I4SHQg"/>
      <point x="3545" y="1240" type="line" identifier="eqNb2VTwYs"/>
      <point x="3545" y="939" type="line" identifier="mLmcFoJA4m"/>
      <point x="3547" y="939" type="line" identifier="e79n7CoPy1"/>
      <point x="3547" y="1600" type="line" identifier="qYRmo14Il5"/>
      <point x="634" y="1600" type="line" identifier="HmJIcnLWfC"/>
    </contour>
  </outline>
</glyph>
<glyph name="G" format="2">
  <advance width="4116"/>
  <unicode hex="0047"/>
  <outline>
    <contour>
      <point x="444" y="0" type="line" identifier="7lPhzTnk2Z"/>
      <point x="3545" y="0" type="line" identifier="qJVLZGnkwh"/>
      <point x="3545" y="976" type="line" identifier="uek1NNj7De"/>
      <point x="2302" y="976" type="line" identifier="qcvimxjndX"/>
      <point x="2302" y="616" type="line" identifier="EARaY3Su65"/>
      <point x="3543" y="616" type="line" identifier="4m6dHLVhZq"/>
      <point x="3543" y="360" type="line" identifier="Y750RHTvDj"/>
      <point x="446" y="360" type="line" identifier="L2LsGnXiZ2"/>
      <point x="446" y="985" type="line" identifier="sUWsr03vF4"/>
      <point x="709" y="1240" type="line" identifier="dbOUe6OhxL"/>
      <point x="3543" y="1240" type="line" identifier="5BjRbcud80"/>
      <point x="3543" y="1067" type="line" identifier="fNVDqwQo2o"/>
      <point x="3545" y="1067" type="line" identifier="wLqQQx7QVN"/>
      <point x="3545" y="1600" type="line" identifier="9eJelv8BOw"/>
      <point x="905" y="1600" type="line" identifier="lfZev3ICaC"/>
      <point x="444" y="1115" type="line" identifier="V1EWIdPahq"/>
    </contour>
  </outline>
</glyph>
<glyph name="M" format="2">
  <advance width="5083"/>
  <unicode hex="004D"/>
  <outline>
    <contour>
      <point x="2287" y="134" type="line" identifier="0Dn4Xpf57M"/>
      <point x="997" y="1256" type="line"/>
      <point x="637" y="1256" type="line"/>
      <point x="637" y="0" type="line"/>
      <point x="635" y="0" type="line"/>
      <point x="635" y="1600" type="line"/>
      <point x="1111" y="1600" type="line"/>
      <point x="2364" y="544" type="line"/>
      <point x="2719" y="544" type="line" identifier="9aKZPM0HPh"/>
      <point x="3972" y="1600" type="line"/>
      <point x="4448" y="1600" type="line"/>
      <point x="4448" y="0" type="line"/>
      <point x="4446" y="0" type="line"/>
      <point x="4446" y="1256" type="line"/>
      <point x="4086" y="1256" type="line"/>
      <point x="2796" y="134" type="line" identifier="spdoeeCFft"/>
    </contour>
  </outline>
</glyph>
<glyph name="X" format="2">
  <advance width="3920"/>
  <unicode hex="0058"/>
  <outline>
    <contour>
      <point x="422" y="0" type="line"/>
      <point x="424" y="0" type="line"/>
      <point x="424" y="589" type="line"/>
      <point x="917" y="589" type="line"/>
      <point x="3000" y="589" type="line"/>
      <point x="3496" y="357" type="line"/>
      <point x="3496" y="0" type="line"/>
      <point x="3498" y="0" type="line"/>
      <point x="3498" y="556" type="line"/>
      <point x="3001" y="787" type="line"/>
      <point x="3002" y="794" type="line"/>
      <point x="3495" y="794" type="line"/>
      <point x="3495" y="1600" type="line"/>
      <point x="3493" y="1600" type="line"/>
      <point x="3493" y="980" type="line"/>
      <point x="3127" y="980" type="line"/>
      <point x="934" y="980" type="line"/>
      <point x="427" y="1195" type="line"/>
      <point x="427" y="1600" type="line"/>
      <point x="425" y="1600" type="line"/>
      <point x="425" y="1011" type="line"/>
      <point x="915" y="801" type="line"/>
      <point x="915" y="793" type="line"/>
      <point x="422" y="793" type="line"/>
    </contour>
  </outline>
</glyph>
<glyph name="bracketleft" format="2">
  <advance width="1975"/>
  <unicode hex="005B"/>
  <outline>
    <contour>
      <point x="637" y="1401" type="line"/>
      <point x="1741" y="1401" type="line"/>
      <point x="1741" y="1788" type="line"/>
      <point x="635" y="1788" type="line"/>
      <point x="635" y="-188" type="line"/>
      <point x="1736" y="-188" type="line"/>
      <point x="1736" y="199" type="line"/>
      <point x="637" y="199" type="line"/>
    </contour>
  </outline>
</glyph>
<glyph name="bar" format="2">
  <advance width="1271"/>
  <unicode hex="007C"/>
  <outline>
    <contour>
      <point x="635" y="-190" type="line"/>
      <point x="637" y="-190" type="line"/>
      <point x="637" y="1790" type="line"/>
      <point x="635" y="1790" type="line"/>
    </contour>
  </outline>
</glyph>
<glyph name="B.skinnymiddle" format="2">
  <advance width="4356"/>
  <outline>
    <contour>
      <point x="579" y="0" type="line" identifier="hvY9r8RmLr"/>
      <point x="3462" y="0" type="line" identifier="9QFpw7nfq7"/>
      <point x="3913" y="506" type="line"/>
      <point x="3913" y="942" type="line" identifier="543PerILpr"/>
      <point x="3363" y="942" type="line" identifier="zhomauHW30"/>
      <point x="3573" y="1067" type="line"/>
      <point x="3573" y="1600" type="line" identifier="FaP204GrdB"/>
      <point x="579" y="1600" type="line" identifier="JEev70GAj6"/>
    </contour>
    <contour>
      <point x="581" y="367" type="line" identifier="jaMSiLrCua"/>
      <point x="581" y="676" type="line" identifier="XSrxNd2axx"/>
      <point x="3911" y="676" type="line" identifier="lsRGatjQja"/>
      <point x="3911" y="658" type="line"/>
      <point x="3604" y="367" type="line" identifier="xhlDJ3CjD5"/>
    </contour>
    <contour>
      <point x="581" y="924" type="line" identifier="By7dfMihfe"/>
      <point x="581" y="1233" type="line" identifier="1p5hKrurVy"/>
      <point x="3572" y="1233" type="line" identifier="Qby8aMtF2X"/>
      <point x="3572" y="1068" type="line"/>
      <point x="3361" y="924" type="line" identifier="xpxyvIzPoc"/>
    </contour>
  </outline>
</glyph>
<glyph name="C.wide" format="2">
  <advance width="4085"/>
  <outline>
    <contour>
      <point x="444" y="0" type="line" identifier="7lPhzTnk2Z"/>
      <point x="3631" y="0" type="line" identifier="qJVLZGnkwh"/>
      <point x="3631" y="388" type="line" identifier="Y750RHTvDj"/>
      <point x="446" y="388" type="line" identifier="L2LsGnXiZ2"/>
      <point x="446" y="920" type="line" identifier="sUWsr03vF4"/>
      <point x="725" y="1212" type="line" identifier="dbOUe6OhxL"/>
      <point x="3630" y="1212" type="line" identifier="5BjRbcud80"/>
      <point x="3630" y="1600" type="line" identifier="9eJelv8BOw"/>
      <point x="896" y="1600" type="line" identifier="lfZev3ICaC"/>
      <point x="444" y="1076" type="line" identifier="V1EWIdPahq"/>
    </contour>
  </outline>
</glyph>
<glyph name="E.wide" format="2">
  <advance width="4254"/>
  <outline>
    <contour>
      <point x="597" y="0" type="line" identifier="fZynkQ4XHB"/>
      <point x="3800" y="0" type="line" identifier="FAQNpgUPxV"/>
      <point x="3800" y="365" type="line" identifier="5cgTYOhATF"/>
      <point x="599" y="365" type="line" identifier="bWs42DaCgU"/>
      <point x="599" y="627" type="line" identifier="VtD2aADJmn"/>
      <point x="3237" y="627" type="line" identifier="PpbsFdHAnS"/>
      <point x="3237" y="973" type="line" identifier="8WuC5p8Ax5"/>
      <point x="599" y="973" type="line" identifier="m39IWn9ntA"/>
      <point x="599" y="1236" type="line" identifier="gQ21I4SHQg"/>
      <point x="3799" y="1236" type="line" identifier="eqNb2VTwYs"/>
      <point x="3799" y="1600" type="line" identifier="qYRmo14Il5"/>
      <point x="597" y="1600" type="line" identifier="HmJIcnLWfC"/>
    </contour>
  </outline>
</glyph>
<glyph name="F.wide" format="2">
  <advance width="4309"/>
  <outline>
    <contour>
      <point x="581" y="0" type="line" identifier="oAgH2tA6DJ"/>
      <point x="583" y="0" type="line" identifier="zCZyMcW5ho"/>
      <point x="583" y="542" type="line" identifier="yHYqkMd7LI"/>
      <point x="3408" y="542" type="line" identifier="NmB7yyQuio"/>
      <point x="3408" y="930" type="line" identifier="wQk2C8zPHh"/>
      <point x="583" y="930" type="line" identifier="4cFHKQfHDt"/>
      <point x="583" y="1212" type="line" identifier="ZvzwyrcwpS"/>
      <point x="3855" y="1212" type="line" identifier="4E754ovOIe"/>
      <point x="3855" y="1600" type="line" identifier="NUrIjqOB7J"/>
      <point x="581" y="1600" type="line" identifier="TBAYuCfUFX"/>
    </contour>
  </outline>
</glyph>
<glyph name="L.wide" format="2">
  <advance width="3953"/>
  <outline>
    <contour>
      <point x="635" y="0" type="line" identifier="XkJNfQlnnt"/>
      <point x="3456" y="0" type="line" identifier="82EXZEgt46"/>
      <point x="3456" y="388" type="line" identifier="cqpSxwFiM3"/>
      <point x="637" y="388" type="line" identifier="MbxRZRd8vz"/>
      <point x="637" y="1600" type="line" identifier="lYiaKSKITt"/>
      <point x="635" y="1600" type="line" identifier="XFf4mMUzYo"/>
    </contour>
  </outline>
</glyph>
<glyph name="N.wide" format="2">
  <advance width="3643"/>
  <outline>
    <contour>
      <point x="381" y="0" type="line" identifier="CkwYPPvJLv"/>
      <point x="383" y="0" type="line" identifier="oHTJsN7drZ"/>
      <point x="383" y="1200" type="line" identifier="wfBbYd10Pm"/>
      <point x="782" y="1200" type="line" identifier="MEnBDHq6zU"/>
      <point x="3350" y="0" type="line" identifier="3Nbopwznvn"/>
      <point x="3751" y="0" type="line" identifier="uKfuudIUvA"/>
      <point x="3751" y="1600" type="line" identifier="XRdLFXiM4t"/>
      <point x="3750" y="1600" type="line" identifier="MUSJPjCIXg"/>
      <point x="3750" y="400" type="line" identifier="VILP20cFmq"/>
      <point x="3351" y="400" type="line" identifier="z5b04GDwRN"/>
      <point x="782" y="1600" type="line" identifier="LL64NQ6WBE"/>
      <point x="381" y="1600" type="line" identifier="dzUaaP1sjt"/>
    </contour>
  </outline>
</glyph>
<glyph name="U.alt" format="2">
  <advance width="3846"/>
  <outline>
    <contour>
      <point x="3588" y="1600" type="line" smooth="yes"/>
      <point x="3588" y="388" type="line"/>
      <point x="257" y="388" type="line" smooth="yes"/>
      <point x="257" y="1600" type="line"/>
      <point x="255" y="1600" type="line" smooth="yes"/>
      <point x="255" y="0" type="line" smooth="yes"/>
      <point x="3590" y="0" type="line" smooth="yes"/>
      <point x="3590" y="1600" type="line" smooth="yes"/>
    </contour>
  </outline>
</glyph>
<glyph name="Y.wide" format="2">
  <advance width="4322"/>
  <outline>
    <contour>
      <point x="525" y="0" type="line"/>
      <point x="3705" y="0" type="line" identifier="oOtn61SmRY"/>
      <point x="3705" y="1600" type="line" identifier="8OglXgblhr"/>
      <point x="3703" y="1600" type="line" identifier="db0bPhBdaU"/>
      <point x="3703" y="1003" type="line" identifier="MTAeavIVWY"/>
      <point x="525" y="1003" type="line" identifier="lggLiivmLt"/>
      <point x="525" y="1600" type="line" identifier="UPaHY3UudR"/>
      <point x="523" y="1600" type="line" identifier="ZnCDQVdtyD"/>
      <point x="523" y="637" type="line" identifier="uqAJBjDIOT"/>
      <point x="3703" y="637" type="line" identifier="7JgTtdb0jg"/>
      <point x="3703" y="367" type="line"/>
      <point x="525" y="367" type="line"/>
    </contour>
  </outline>
</glyph>
<glyph name="nine.wide" format="2">
  <advance width="4294"/>
  <outline>
    <contour>
      <point x="422" y="0" type="line" identifier="oGvEEuxnYv"/>
      <point x="3482" y="0" type="line" identifier="xR3pEHbMJx"/>
      <point x="3482" y="1600" type="line" identifier="uiw6aBUf4P"/>
      <point x="421" y="1600" type="line" identifier="jtYkxiUX6G"/>
      <point x="421" y="626" type="line" identifier="2G5L37c87I"/>
      <point x="3481" y="626" type="line"/>
      <point x="3481" y="367" type="line"/>
      <point x="422" y="367" type="line"/>
    </contour>
    <contour>
      <point x="423" y="974" type="line"/>
      <point x="423" y="1233" type="line"/>
      <point x="3481" y="1233" type="line"/>
      <point x="3481" y="974" type="line"/>
    </contour>
  </outline>
</glyph>
<glyph name="six.wide" format="2">
  <advance width="3727"/>
  <outline>
    <contour>
      <point x="367" y="0" type="line" identifier="uiw6aBUf4P"/>
      <point x="3654" y="0" type="line" identifier="jtYkxiUX6G"/>
      <point x="3654" y="973" type="line" identifier="2G5L37c87I"/>
      <point x="368" y="973" type="line"/>
      <point x="368" y="1018" type="line"/>
      <point x="621" y="1233" type="line"/>
      <point x="3642" y="1233" type="line"/>
      <point x="3642" y="1600" type="line" identifier="oGvEEuxnYv"/>
      <point x="821" y="1600" type="line" identifier="xR3pEHbMJx"/>
      <point x="367" y="1170" type="line" identifier="KnMArb0tv8"/>
    </contour>
    <contour>
      <point x="3652" y="625" type="line"/>
      <point x="3652" y="367" type="line"/>
      <point x="368" y="367" type="line"/>
      <point x="368" y="625" type="line"/>
    </contour>
  </outline>
</glyph>
<glyph name="two.wide" format="2">
  <advance width="4046"/>
  <outline>
    <contour>
      <point x="480" y="0" type="line"/>
      <point x="3584" y="0" type="line" identifier="pzdvPTirLJ"/>
      <point x="3584" y="367" type="line"/>
      <point x="482" y="367" type="line"/>
      <point x="482" y="626" type="line"/>
      <point x="3574" y="626" type="line" identifier="yyb1NCCI5w"/>
      <point x="3574" y="1600" type="line" identifier="5FogYRSgkk"/>
      <point x="483" y="1600" type="line" identifier="svlFvrau4c"/>
      <point x="483" y="1233" type="line"/>
      <point x="3572" y="1233" type="line"/>
      <point x="3572" y="971" type="line"/>
      <point x="480" y="971" type="line" identifier="teVKnpBcVb"/>
    </contour>
  </outline>
</glyph>
<glyph name="two.wideskinny" format="2">
  <advance width="3790"/>
  <outline>
    <contour>
      <point x="486" y="0" type="line"/>
      <point x="3590" y="0" type="line" identifier="pzdvPTirLJ"/>
      <point x="3590" y="367" type="line"/>
      <point x="488" y="367" type="line"/>
      <point x="488" y="657" type="line"/>
      <point x="3580" y="657" type="line" identifier="yyb1NCCI5w"/>
      <point x="3580" y="1600" type="line" identifier="5FogYRSgkk"/>
      <point x="489" y="1600" type="line" identifier="svlFvrau4c"/>
      <point x="489" y="1233" type="line"/>
      <point x="3578" y="1233" type="line"/>
      <point x="3578" y="940" type="line"/>
      <point x="486" y="940" type="line" identifier="teVKnpBcVb"/>
    </contour>
  </outline>
</glyph>
